<svg width="151" height="21" viewBox="0 0 151 21" fill="none" xmlns="http://www.w3.org/2000/svg">
<g clip-path="url(#clip0_4563_30524)">
<path d="M19.4487 8.61217L18.1229 16.1337C17.9849 16.9177 17.2548 17.7789 16.5021 18.0513L9.27485 20.6552C8.52216 20.9288 7.40323 20.7302 6.78966 20.2187L0.895349 15.2999C0.278212 14.786 -0.10943 13.7273 0.0273148 12.9433L1.35434 5.41822C1.49227 4.6343 2.22237 3.77306 2.97506 3.50065L10.1976 0.897903C10.9503 0.629064 12.0692 0.82772 12.684 1.33804L18.5795 6.2509C19.1942 6.76836 19.5842 7.82945 19.4487 8.61217Z" fill="#14C8FF"/>
<path d="M9.18687 12.268C9.02753 13.0924 8.98353 13.5563 9.81708 13.5563H11.6863L11.2963 15.2455H9.05369C7.72905 15.2455 6.86933 13.9834 7.21298 12.2074C7.34854 11.5091 7.76829 9.6165 7.76829 9.6165H6.55066L6.80631 8.29966C7.91427 7.85928 8.85511 7.08043 9.49484 6.07401H10.3926L9.99664 8.08673H12.7732L12.4711 9.60223H9.69461L9.18687 12.268Z" fill="white"/>
<path d="M81.2766 8.43526C80.732 7.89045 79.9282 7.61447 78.8889 7.61447C78.0702 7.60646 77.2593 7.77398 76.5107 8.10576C76.4026 8.15202 76.3104 8.22894 76.2456 8.32704C76.1807 8.42513 76.146 8.54009 76.1457 8.65771C76.1509 8.81193 76.2159 8.95807 76.3268 9.06527C76.4377 9.17248 76.586 9.23236 76.7402 9.23227C76.8221 9.22981 76.9027 9.21206 76.978 9.17993C77.543 8.9228 78.1565 8.79014 78.7771 8.79094C80.4347 8.79094 80.7831 9.78422 80.7831 10.6169V10.7097C80.1072 10.5251 79.4088 10.4355 78.7082 10.4432C76.7545 10.4432 75.5416 11.3711 75.5416 12.8664V12.8937C75.5416 14.4306 76.94 15.2348 78.3229 15.2348C79.5263 15.2348 80.3051 14.7244 80.7831 14.2117V14.5353C80.782 14.6177 80.7975 14.6994 80.8289 14.7756C80.8602 14.8517 80.9067 14.9207 80.9656 14.9783C81.0244 15.036 81.0943 15.081 81.1711 15.1108C81.2479 15.1406 81.3299 15.1544 81.4122 15.1515C81.4963 15.1525 81.5797 15.1365 81.6574 15.1043C81.7351 15.0721 81.8055 15.0245 81.8643 14.9644C81.9231 14.9042 81.9691 14.8327 81.9995 14.7543C82.0299 14.6758 82.0441 14.592 82.0412 14.5079V10.6038C82.0471 9.67359 81.7843 8.94439 81.2766 8.43526ZM78.531 14.1547C77.7236 14.1547 76.8568 13.7478 76.8568 12.8461V12.8188C76.8568 11.9694 77.5904 11.4615 78.8199 11.4615C79.4886 11.4615 80.1541 11.5539 80.7974 11.7363V12.3311C80.7974 13.3755 79.8235 14.1547 78.531 14.1547Z" fill="white"/>
<path d="M89.2018 12.9353V12.9627C89.2018 14.3128 88.1316 15.2229 86.5442 15.2229C85.5354 15.2057 84.5551 14.8853 83.7308 14.3033C83.6625 14.2538 83.6058 14.1901 83.5644 14.1166C83.5139 14.026 83.4872 13.9241 83.4871 13.8204C83.4893 13.6662 83.5524 13.5192 83.6627 13.4115C83.7731 13.3038 83.9215 13.2442 84.0757 13.2458C84.1969 13.2435 84.3154 13.2821 84.4122 13.3553C85.1256 13.8394 85.864 14.088 86.6001 14.088C87.4111 14.088 87.9568 13.6812 87.9568 13.0757V13.0483C87.9568 12.4286 87.2232 12.1752 86.2636 11.9064C85.2315 11.6137 83.8188 11.2117 83.8188 9.77826V9.74971C83.8188 8.47808 84.8652 7.58948 86.3647 7.58948C87.1808 7.60642 87.981 7.81938 88.6976 8.21043C88.7937 8.2645 88.8741 8.34257 88.931 8.43702C88.9879 8.53146 89.0194 8.63906 89.0223 8.74929C89.0201 8.90347 88.9569 9.0505 88.8466 9.15818C88.7363 9.26587 88.5878 9.32544 88.4337 9.32385C88.3339 9.32314 88.2355 9.29997 88.1459 9.25605C87.599 8.9248 86.9763 8.73928 86.3373 8.71718C85.5834 8.71718 85.0769 9.08475 85.0769 9.63313V9.66049C85.0769 10.2422 85.9092 10.4932 86.7999 10.7656L86.8272 10.7739C87.7725 11.063 89.2018 11.4912 89.2018 12.9353Z" fill="white"/>
<path d="M95.9321 12.9353V12.9627C95.9321 14.3128 94.8619 15.2229 93.2757 15.2229C92.2665 15.2057 91.2858 14.8853 90.4611 14.3033C90.3932 14.2537 90.3368 14.19 90.2958 14.1166C90.2447 14.0263 90.218 13.9242 90.2185 13.8204C90.2207 13.6664 90.2837 13.5196 90.3938 13.4119C90.5038 13.3043 90.652 13.2445 90.8059 13.2458C90.9272 13.2432 91.0459 13.2817 91.1424 13.3553C91.8559 13.8394 92.5955 14.088 93.3304 14.088C94.1425 14.088 94.6871 13.6812 94.6871 13.0757V13.0483C94.6871 12.4286 93.9546 12.1752 92.995 11.9064C91.9629 11.6137 90.5491 11.2117 90.5491 9.77826V9.74971C90.5491 8.47808 91.5967 7.58948 93.0961 7.58948C93.9119 7.60628 94.7117 7.81926 95.4279 8.21043C95.5241 8.26431 95.6047 8.34234 95.6616 8.43683C95.7185 8.53132 95.7499 8.63901 95.7525 8.74929C95.7507 8.90336 95.6877 9.05039 95.5776 9.15811C95.4675 9.26583 95.3191 9.32544 95.1651 9.32385C95.0653 9.32348 94.9669 9.30028 94.8774 9.25605C94.3304 8.9248 93.7077 8.73928 93.0688 8.71718C92.3149 8.71718 91.8083 9.08475 91.8083 9.63313V9.66049C91.8083 10.2422 92.6407 10.4932 93.5313 10.7656L93.5587 10.7739C94.504 11.063 95.9321 11.4912 95.9321 12.9353Z" fill="white"/>
<path d="M101.072 7.55973C100.566 7.55465 100.064 7.65062 99.5958 7.84202C99.1272 8.03343 98.7015 8.31644 98.3436 8.67446C97.9857 9.03249 97.7028 9.45834 97.5115 9.9271C97.3202 10.3958 97.2242 10.8981 97.2293 11.4044V11.4329C97.2331 12.4507 97.6409 13.4253 98.3629 14.1423C99.085 14.8593 100.062 15.2599 101.08 15.2562C102.097 15.2524 103.071 14.8444 103.788 14.1221C104.505 13.3997 104.905 12.4221 104.901 11.4044V11.377C104.906 10.8734 104.81 10.3739 104.619 9.9079C104.428 9.44189 104.146 9.01871 103.789 8.66318C103.432 8.30764 103.008 8.02691 102.542 7.83743C102.075 7.64795 101.576 7.55354 101.072 7.55973ZM101.072 14.0595C99.661 14.0595 98.5563 12.8937 98.5563 11.4044V11.377C98.5563 9.87223 99.6265 8.7362 101.044 8.7362C102.461 8.7362 103.57 9.90673 103.57 11.4032V11.4317C103.57 12.9294 102.499 14.0583 101.072 14.0583V14.0595Z" fill="white"/>
<path d="M112.856 13.6526C112.855 13.8083 112.793 13.9573 112.684 14.0678C111.879 14.8731 110.998 15.2478 109.91 15.2478C108.904 15.2397 107.943 14.8337 107.236 14.1187C106.529 13.4036 106.133 12.4376 106.136 11.4317V11.4032C106.136 9.28341 107.829 7.55855 109.91 7.55855C110.915 7.54541 111.885 7.93072 112.607 8.63034C112.671 8.68825 112.723 8.75925 112.758 8.83862C112.793 8.918 112.811 9.00393 112.81 9.0907C112.81 9.2575 112.743 9.41737 112.625 9.53532C112.507 9.65326 112.348 9.71966 112.181 9.71998C112.027 9.71923 111.879 9.66545 111.76 9.56771C111.29 9.1359 110.742 8.73502 109.892 8.73502C108.527 8.73502 107.459 9.89484 107.459 11.3758V11.4032C107.459 12.8925 108.558 14.0583 109.956 14.0583C110.643 14.0583 111.264 13.7847 111.859 13.2256C111.908 13.1722 111.967 13.1295 112.034 13.1C112.1 13.0705 112.171 13.055 112.244 13.0543C112.404 13.0555 112.557 13.1184 112.671 13.23C112.785 13.3416 112.851 13.493 112.856 13.6526Z" fill="white"/>
<path d="M115.947 5.59461V5.77542C115.947 6.16559 115.622 6.45941 115.193 6.45941C114.764 6.45941 114.453 6.16559 114.453 5.77542V5.59461C114.453 5.1973 114.765 4.90942 115.193 4.90942C115.621 4.90942 115.947 5.1973 115.947 5.59461Z" fill="white"/>
<path d="M115.849 8.29847V14.4949C115.852 14.5807 115.838 14.6662 115.807 14.7462C115.776 14.8262 115.729 14.8992 115.669 14.9605C115.609 15.0219 115.537 15.0705 115.457 15.1033C115.378 15.1361 115.293 15.1525 115.207 15.1515C115.121 15.1524 115.035 15.1361 114.955 15.1035C114.875 15.0708 114.802 15.0225 114.741 14.9614C114.679 14.9002 114.631 14.8275 114.598 14.7474C114.565 14.6673 114.549 14.5814 114.55 14.4949V8.29847C114.546 8.21076 114.56 8.12319 114.591 8.04105C114.622 7.9589 114.669 7.88388 114.73 7.82049C114.791 7.7571 114.863 7.70665 114.944 7.67219C115.025 7.63773 115.112 7.61996 115.199 7.61996C115.287 7.61996 115.374 7.63773 115.455 7.67219C115.536 7.70665 115.608 7.7571 115.669 7.82049C115.73 7.88388 115.777 7.9589 115.808 8.04105C115.839 8.12319 115.853 8.21076 115.849 8.29847Z" fill="white"/>
<path d="M123.276 8.43525C122.732 7.89044 121.929 7.61446 120.89 7.61446C120.071 7.6066 119.26 7.77411 118.512 8.10575C118.404 8.15231 118.312 8.22935 118.247 8.3274C118.183 8.42545 118.148 8.54025 118.148 8.6577C118.153 8.81069 118.217 8.95578 118.326 9.0628C118.436 9.16981 118.582 9.23051 118.735 9.23226C118.817 9.2298 118.898 9.21205 118.973 9.17992C119.538 8.92269 120.152 8.79003 120.773 8.79093C122.431 8.79093 122.778 9.78421 122.778 10.6169V10.7097C122.103 10.525 121.405 10.4353 120.704 10.4432C118.751 10.4432 117.537 11.3711 117.537 12.8663V12.8937C117.537 14.4306 118.936 15.2348 120.318 15.2348C121.521 15.2348 122.3 14.7244 122.778 14.2117V14.5353C122.777 14.6176 122.793 14.6993 122.824 14.7753C122.856 14.8514 122.902 14.9203 122.961 14.9779C123.02 15.0355 123.09 15.0806 123.166 15.1104C123.243 15.1403 123.325 15.1542 123.407 15.1515C123.491 15.1525 123.575 15.1364 123.653 15.1043C123.73 15.0721 123.801 15.0246 123.86 14.9644C123.919 14.9043 123.965 14.8328 123.995 14.7544C124.026 14.6759 124.04 14.5921 124.037 14.5079V10.6038C124.043 9.67358 123.784 8.94438 123.276 8.43525ZM120.531 14.1546C119.725 14.1546 118.857 13.7478 118.857 12.8461V12.8188C118.857 11.9694 119.59 11.4615 120.821 11.4615C121.49 11.4616 122.155 11.5541 122.798 11.7363V12.331C122.798 13.3755 121.823 14.1546 120.531 14.1546Z" fill="white"/>
<path d="M129.974 14.4806C129.973 14.5967 129.936 14.7094 129.868 14.8034C129.799 14.8973 129.704 14.9678 129.594 15.0052C129.248 15.1444 128.877 15.2128 128.504 15.2062C127.128 15.2062 126.37 14.4497 126.37 13.0733V8.8873H125.91C125.755 8.88337 125.608 8.82004 125.499 8.71042C125.389 8.6008 125.326 8.4533 125.323 8.29847C125.325 8.14319 125.387 7.9948 125.497 7.88499C125.607 7.77519 125.755 7.71268 125.91 7.71083H126.37V6.14656C126.369 6.0609 126.384 5.97575 126.415 5.89609C126.447 5.81643 126.494 5.74385 126.554 5.68261C126.614 5.62136 126.685 5.57267 126.764 5.53938C126.843 5.5061 126.928 5.48888 127.014 5.48874C127.187 5.49121 127.353 5.56134 127.475 5.68421C127.598 5.80708 127.668 5.97297 127.67 6.14656V7.71083H129.4C129.557 7.71109 129.708 7.77264 129.82 7.88239C129.933 7.99214 129.998 8.14142 130.002 8.29847C130.001 8.37668 129.985 8.45397 129.954 8.52591C129.924 8.59785 129.879 8.66304 129.823 8.71773C129.767 8.77243 129.701 8.81556 129.628 8.84465C129.556 8.87375 129.478 8.88824 129.4 8.8873H127.67V12.9318C127.67 13.6598 128.014 14.0024 128.752 14.0024C128.922 14.0026 129.091 13.9794 129.254 13.9334C129.301 13.9185 129.35 13.9093 129.4 13.906C129.552 13.9063 129.698 13.967 129.806 14.0747C129.914 14.1823 129.974 14.3283 129.974 14.4806Z" fill="white"/>
<path d="M133.059 5.59461V5.77542C133.059 6.16559 132.736 6.45941 132.305 6.45941C131.875 6.45941 131.565 6.16559 131.565 5.77542V5.59461C131.565 5.1973 131.877 4.90942 132.305 4.90942C132.733 4.90942 133.059 5.1973 133.059 5.59461Z" fill="white"/>
<path d="M132.967 8.29847V14.4949C132.97 14.5807 132.955 14.6663 132.924 14.7463C132.893 14.8263 132.846 14.8992 132.786 14.9606C132.726 15.0219 132.654 15.0705 132.575 15.1033C132.495 15.1361 132.41 15.1525 132.324 15.1515C132.238 15.1525 132.152 15.1361 132.072 15.1035C131.992 15.0708 131.919 15.0225 131.858 14.9613C131.797 14.9001 131.748 14.8274 131.716 14.7473C131.683 14.6672 131.667 14.5814 131.668 14.4949V8.29847C131.664 8.21076 131.678 8.12319 131.709 8.04105C131.74 7.9589 131.787 7.88388 131.848 7.82049C131.909 7.7571 131.982 7.70665 132.062 7.67219C132.143 7.63773 132.23 7.61996 132.318 7.61996C132.405 7.61996 132.492 7.63773 132.573 7.67219C132.654 7.70665 132.726 7.7571 132.787 7.82049C132.848 7.88388 132.895 7.9589 132.926 8.04105C132.957 8.12319 132.971 8.21076 132.967 8.29847Z" fill="white"/>
<path d="M138.6 7.55975C138.094 7.55466 137.592 7.65063 137.123 7.84204C136.655 8.03345 136.229 8.31645 135.871 8.67448C135.513 9.0325 135.231 9.45836 135.039 9.92711C134.848 10.3959 134.752 10.8981 134.757 11.4044V11.4329C134.761 12.4507 135.169 13.4253 135.891 14.1423C136.613 14.8593 137.59 15.26 138.607 15.2562C139.625 15.2524 140.599 14.8444 141.316 14.1221C142.032 13.3998 142.433 12.4222 142.429 11.4044V11.377C142.434 10.8733 142.338 10.3738 142.147 9.90772C141.956 9.44164 141.674 9.01839 141.317 8.66283C140.96 8.30726 140.536 8.02653 140.07 7.83711C139.603 7.64769 139.104 7.55339 138.6 7.55975ZM138.6 14.0595C137.19 14.0595 136.084 12.8937 136.084 11.4044V11.377C136.084 9.87224 137.154 8.73622 138.573 8.73622C139.991 8.73622 141.102 9.90793 141.102 11.4044V11.4329C141.102 12.9294 140.026 14.0583 138.6 14.0583V14.0595Z" fill="white"/>
<path d="M150.581 10.5336V14.4949C150.585 14.5826 150.571 14.6701 150.54 14.7523C150.509 14.8344 150.462 14.9095 150.401 14.9728C150.34 15.0362 150.268 15.0867 150.187 15.1211C150.106 15.1556 150.019 15.1734 149.932 15.1734C149.844 15.1734 149.757 15.1556 149.676 15.1211C149.596 15.0867 149.523 15.0362 149.462 14.9728C149.401 14.9095 149.354 14.8344 149.323 14.7523C149.292 14.6701 149.278 14.5826 149.282 14.4949V10.7965C149.282 9.52252 148.588 8.76239 147.428 8.76239C146.239 8.76239 145.406 9.63315 145.406 10.8798V14.4949C145.409 14.5807 145.395 14.6663 145.363 14.7463C145.332 14.8263 145.285 14.8992 145.225 14.9606C145.165 15.0219 145.093 15.0705 145.014 15.1033C144.934 15.1361 144.849 15.1525 144.763 15.1515C144.677 15.1525 144.591 15.1361 144.511 15.1035C144.431 15.0708 144.358 15.0225 144.297 14.9613C144.236 14.9001 144.187 14.8274 144.155 14.7473C144.122 14.6672 144.106 14.5814 144.107 14.4949V8.29847C144.103 8.21076 144.117 8.12319 144.148 8.04105C144.179 7.9589 144.226 7.88388 144.287 7.82049C144.348 7.7571 144.421 7.70665 144.501 7.67219C144.582 7.63773 144.669 7.61996 144.757 7.61996C144.844 7.61996 144.931 7.63773 145.012 7.67219C145.093 7.70665 145.166 7.7571 145.226 7.82049C145.287 7.88388 145.334 7.9589 145.365 8.04105C145.396 8.12319 145.41 8.21076 145.406 8.29847V8.68626C145.977 7.93803 146.757 7.55856 147.729 7.55856C149.468 7.55975 150.581 8.72671 150.581 10.5336Z" fill="white"/>
<path d="M34.5525 7.55261C32.5679 7.55261 31.0126 9.23583 31.0126 11.3842V11.4115C31.0126 13.5956 32.5941 15.2419 34.6904 15.2419C35.8082 15.2419 36.6631 14.9005 37.4574 14.1368C37.549 14.0611 37.6146 13.9587 37.6451 13.8439C37.6756 13.7291 37.6694 13.6076 37.6275 13.4964C37.5856 13.3853 37.5099 13.29 37.4112 13.2239C37.3125 13.1579 37.1956 13.1244 37.0769 13.1281C36.9342 13.1315 36.7976 13.1869 36.6928 13.2839C36.1669 13.7998 35.4579 14.0859 34.7213 14.0797C33.4669 14.0797 32.5263 13.2113 32.3432 11.9028H37.3683C37.5314 11.9028 37.6879 11.8381 37.8034 11.7228C37.9188 11.6075 37.9839 11.451 37.9842 11.2878C37.9818 9.43211 36.8034 7.55261 34.5525 7.55261ZM32.3432 10.8786C32.5215 9.58199 33.405 8.68864 34.5275 8.68864C35.9164 8.68864 36.5406 9.79611 36.6679 10.8786H32.3432Z" fill="white"/>
<path d="M40.3588 4.69531C40.1865 4.69751 40.0221 4.76801 39.9017 4.89135C39.7814 5.01468 39.7148 5.18076 39.7167 5.35314V14.4877C39.7158 14.5742 39.7321 14.66 39.7647 14.7401C39.7974 14.8202 39.8457 14.893 39.9068 14.9542C39.968 15.0153 40.0407 15.0637 40.1208 15.0963C40.2008 15.129 40.2866 15.1453 40.3731 15.1444C40.459 15.1454 40.5441 15.129 40.6235 15.0962C40.7029 15.0634 40.7748 15.0148 40.8349 14.9535C40.895 14.8921 40.9421 14.8192 40.9733 14.7392C41.0045 14.6591 41.0191 14.5736 41.0164 14.4877V5.35314C41.0161 5.17877 40.9467 5.01163 40.8234 4.88833C40.7002 4.76503 40.5331 4.69563 40.3588 4.69531Z" fill="white"/>
<path d="M48.925 13.0436C48.8525 13.0441 48.7808 13.0595 48.7145 13.089C48.6482 13.1185 48.5887 13.1613 48.5398 13.2149C47.9452 13.7775 47.3221 14.0476 46.6372 14.0476C45.2341 14.0476 44.1401 12.8818 44.1401 11.3925V11.3663C44.1401 9.88531 45.2103 8.7255 46.573 8.7255C47.4244 8.7255 47.9714 9.12162 48.4423 9.55819C48.5609 9.65592 48.7096 9.70971 48.8632 9.71045C49.0299 9.71013 49.1897 9.64373 49.3076 9.52579C49.4255 9.40785 49.4919 9.24797 49.4922 9.08117C49.4928 8.99431 49.4748 8.90832 49.4396 8.82894C49.4043 8.74956 49.3525 8.67861 49.2877 8.62081C48.565 7.91997 47.5937 7.53489 46.5873 7.55021C44.5064 7.55021 42.8131 9.27388 42.8131 11.3937V11.4222C42.8106 12.4281 43.2061 13.3941 43.9133 14.1091C44.6205 14.8242 45.5818 15.2301 46.5873 15.2383C47.6741 15.2383 48.5564 14.8636 49.3602 14.0583C49.4702 13.948 49.5326 13.7989 49.5339 13.6431C49.529 13.484 49.463 13.3329 49.3496 13.2213C49.2362 13.1096 49.0841 13.046 48.925 13.0436Z" fill="white"/>
<path d="M54.3176 7.55261C53.8116 7.54752 53.3096 7.64345 52.8411 7.83479C52.3726 8.02613 51.947 8.30902 51.5891 8.66692C51.2313 9.02482 50.9484 9.45053 50.7569 9.91915C50.5655 10.3878 50.4695 10.8899 50.4744 11.3961V11.4246C50.5028 12.4259 50.9213 13.3765 51.6406 14.0734C52.3599 14.7703 53.323 15.1582 54.3243 15.1545C55.3257 15.1508 56.2859 14.7556 57 14.0534C57.7141 13.3512 58.1255 12.3976 58.1464 11.3961V11.3663C58.1506 10.8629 58.0542 10.3638 57.8631 9.89811C57.6719 9.43244 57.3898 9.00962 57.0332 8.65444C56.6766 8.29925 56.2527 8.01884 55.7864 7.82964C55.3201 7.64044 54.8207 7.54626 54.3176 7.55261ZM56.8146 11.4246C56.8146 12.9223 55.7445 14.0512 54.3176 14.0512C52.8906 14.0512 51.8026 12.8854 51.8026 11.3961V11.3663C51.8026 9.86154 52.8728 8.72551 54.2902 8.72551C55.7076 8.72551 56.8194 9.89841 56.8194 11.3937L56.8146 11.4246Z" fill="white"/>
<path d="M60.5662 4.90228C60.1381 4.90228 59.8265 5.19134 59.8265 5.58747V5.76709C59.8265 6.15726 60.144 6.45108 60.5662 6.45108C60.9883 6.45108 61.32 6.15726 61.32 5.76709V5.58747C61.32 5.19134 61.0002 4.90228 60.5662 4.90228Z" fill="white"/>
<path d="M60.5662 7.63468C60.3938 7.63688 60.2293 7.70734 60.1087 7.83064C59.9881 7.95394 59.9213 8.12002 59.9229 8.29251V14.4877C59.9219 14.5743 59.9383 14.6602 59.971 14.7404C60.0037 14.8206 60.0522 14.8934 60.1134 14.9546C60.1747 15.0158 60.2476 15.0641 60.3278 15.0967C60.408 15.1293 60.4939 15.1455 60.5805 15.1443C60.6663 15.1454 60.7514 15.129 60.8307 15.0961C60.91 15.0633 60.9818 15.0148 61.0419 14.9534C61.1019 14.892 61.1488 14.8191 61.1799 14.7391C61.2109 14.659 61.2255 14.5735 61.2226 14.4877V8.29251C61.2237 8.20591 61.2075 8.11997 61.1749 8.03973C61.1423 7.95949 61.094 7.88659 61.0329 7.82529C60.9717 7.764 60.8989 7.71556 60.8188 7.68283C60.7386 7.65009 60.6528 7.63372 60.5662 7.63468Z" fill="white"/>
<path d="M67.0764 7.55261C66.1049 7.55261 65.3249 7.93089 64.7541 8.67912V8.29252C64.7579 8.20481 64.7438 8.11724 64.7129 8.0351C64.6819 7.95295 64.6347 7.87793 64.5739 7.81454C64.5132 7.75115 64.4403 7.7007 64.3596 7.66624C64.2789 7.63178 64.192 7.61401 64.1043 7.61401C64.0165 7.61401 63.9297 7.63178 63.849 7.66624C63.7683 7.7007 63.6953 7.75115 63.6346 7.81454C63.5739 7.87793 63.5267 7.95295 63.4957 8.0351C63.4647 8.11724 63.4507 8.20481 63.4545 8.29252V14.4877C63.4535 14.5742 63.4698 14.66 63.5025 14.7401C63.5351 14.8202 63.5834 14.893 63.6446 14.9542C63.7057 15.0153 63.7785 15.0637 63.8585 15.0963C63.9386 15.129 64.0244 15.1453 64.1108 15.1444C64.1967 15.1454 64.2819 15.129 64.3612 15.0962C64.4406 15.0633 64.5125 15.0148 64.5726 14.9534C64.6327 14.8921 64.6798 14.8192 64.711 14.7392C64.7422 14.6591 64.7569 14.5736 64.7541 14.4877V10.8727C64.7541 9.62601 65.5865 8.75644 66.7756 8.75644C67.9361 8.75644 68.6294 9.51657 68.6294 10.7894V14.4877C68.6256 14.5754 68.6396 14.663 68.6706 14.7451C68.7016 14.8273 68.7488 14.9023 68.8095 14.9657C68.8703 15.0291 68.9432 15.0795 69.0239 15.114C69.1046 15.1485 69.1914 15.1662 69.2792 15.1662C69.367 15.1662 69.4538 15.1485 69.5345 15.114C69.6152 15.0795 69.6881 15.0291 69.7489 14.9657C69.8096 14.9023 69.8568 14.8273 69.8878 14.7451C69.9188 14.663 69.9328 14.5754 69.929 14.4877V10.5336C69.9267 8.71957 68.8077 7.55261 67.0764 7.55261Z" fill="white"/>
<path d="M25.456 8.88254H26.4608V13.0674C26.4608 14.4437 27.2182 15.2015 28.594 15.2015C28.9672 15.2074 29.3379 15.1391 29.6844 15.0004C29.7941 14.9626 29.8895 14.8918 29.9574 14.7977C30.0253 14.7036 30.0624 14.5907 30.0637 14.4746C30.0639 14.3991 30.0491 14.3244 30.0203 14.2546C29.9915 14.1848 29.9492 14.1214 29.8958 14.068C29.8425 14.0146 29.7791 13.9723 29.7094 13.9435C29.6396 13.9147 29.5649 13.8999 29.4894 13.9001C29.4397 13.9033 29.3906 13.9124 29.3431 13.9274C29.1796 13.9746 29.0103 13.9982 28.8401 13.9976C28.1029 13.9976 27.7593 13.6574 27.7593 12.927V8.88254H29.4894C29.5675 8.88349 29.645 8.86904 29.7175 8.84001C29.79 8.81099 29.856 8.76797 29.9119 8.7134C29.9678 8.65883 30.0123 8.59378 30.0431 8.52198C30.0738 8.45017 30.0901 8.37301 30.0911 8.2949C30.0883 8.1368 30.0238 7.98606 29.9113 7.87491C29.7989 7.76377 29.6475 7.70103 29.4894 7.70013H27.7605V6.60811C27.7605 6.52356 27.7269 6.44247 27.6671 6.38269C27.6074 6.3229 27.5263 6.28931 27.4418 6.28931C27.3722 6.28887 27.3045 6.31146 27.2491 6.35355L27.1933 6.41065L26.4632 7.13152L25.8686 7.71559L25.431 8.15454" fill="white"/>
</g>
<defs>
<clipPath id="clip0_4563_30524">
<rect width="150.581" height="20" fill="white" transform="translate(0 0.779297)"/>
</clipPath>
</defs>
</svg>
